<svg width="298" height="51" viewBox="0 0 298 51" fill="none" xmlns="http://www.w3.org/2000/svg">
<path d="M26.5964 40.1857L12.0225 47.8481L14.8065 31.6189L3 20.1265L19.2929 17.7652L26.5799 3L33.8668 17.7652L50.1598 20.1265L38.3533 31.6189L41.1373 47.8481L26.5964 40.1857Z" fill="#FFCC68" stroke="#FFCC68" stroke-width="4.72259" stroke-linecap="round" stroke-linejoin="round"/>
<path d="M87.7562 40.1857L73.1823 47.8481L75.9663 31.6189L64.1598 20.1265L80.4527 17.7652L87.7397 3L95.0266 17.7652L111.32 20.1265L99.5131 31.6189L102.297 47.8481L87.7562 40.1857Z" fill="#FFCC68" stroke="#FFCC68" stroke-width="4.72259" stroke-linecap="round" stroke-linejoin="round"/>
<path d="M148.916 40.1857L134.342 47.8481L137.126 31.6189L125.32 20.1265L141.613 17.7652L148.899 3L156.186 17.7652L172.479 20.1265L160.673 31.6189L163.457 47.8481L148.916 40.1857Z" fill="#FFCC68" stroke="#FFCC68" stroke-width="4.72259" stroke-linecap="round" stroke-linejoin="round"/>
<path d="M210.076 40.1857L195.502 47.8481L198.286 31.6189L186.479 20.1265L202.772 17.7652L210.059 3L217.346 17.7652L233.639 20.1265L221.833 31.6189L224.617 47.8481L210.076 40.1857Z" fill="#FFCC68" stroke="#FFCC68" stroke-width="4.72259" stroke-linecap="round" stroke-linejoin="round"/>
<path d="M271.236 40.1857L256.662 47.8481L259.446 31.6189L247.639 20.1265L263.932 17.7652L271.219 3L278.506 17.7652L294.799 20.1265L282.992 31.6189L285.776 47.8481L271.236 40.1857Z" fill="#FFCC68" stroke="#FFCC68" stroke-width="4.72259" stroke-linecap="round" stroke-linejoin="round"/>
</svg>
